<svg width="512" height="512" viewBox="0 0 512 512" fill="none" xmlns="http://www.w3.org/2000/svg">
    <rect width="512" height="512" rx="183" fill="#310B88"/>
    <g transform="translate(80 80) scale(3.52)">
        <path d="M10 80C10 75 15 70 25 70H50V85H25C15 85 10 80 10 80Z" fill="white" fill-opacity="0.2"></path>
        <path d="M90 80C90 75 85 70 75 70H50V85H75C85 85 90 80 90 80Z" fill="white" fill-opacity="0.2"></path>
        <path d="M15 75L48 85V72L15 62V75Z" fill="white"></path>
        <path d="M85 75L52 85V72L85 62V75Z" fill="white"></path>
        <path d="M15 62L48 72C49 72.5 51 72.5 52 72L85 62L50 55L15 62Z" fill="white" fill-opacity="0.8"></path>
        <rect fill="white" height="12" rx="1" width="8" x="22" y="48"></rect>
        <rect fill="white" height="20" rx="1" width="8" x="34" y="40"></rect>
        <rect fill="white" height="28" rx="1" width="8" x="46" y="32"></rect>
        <rect fill="white" height="35" rx="1" width="8" x="58" y="25"></rect>
        <rect fill="white" height="45" rx="1" width="8" x="70" y="15"></rect>
        <path d="M20 55C35 50 60 40 80 10" fill="none" stroke="white" stroke-linecap="round" stroke-width="4"></path>
        <path d="M70 10L80 10L82 22" fill="none" stroke="white" stroke-linecap="round" stroke-linejoin="round" stroke-width="4"></path>
        <circle cx="50" cy="50" fill="url(#grad1)" fill-opacity="0.2" r="50"></circle>
        <defs>
            <linearGradient id="grad1" x1="0%" x2="100%" y1="0%" y2="100%">
                <stop offset="0%" style="stop-color:white;stop-opacity:1"></stop>
                <stop offset="100%" style="stop-color:white;stop-opacity:0"></stop>
            </linearGradient>
        </defs>
    </g>
</svg>
